# xmcd
#
# Track frame offsets: 
#        150
#        24310
#        58993
#
# Disc length: 1207 seconds
#
# Revision: 0
# Processed by: cddbd v1.5.2PL0 Copyright (c) Steve Scherf et al.
# Submitted via: ExactAudioCopy v0.99pb4
#
DISCID=2004b503
DTITLE=Pub - Making Trakcxs .8
DYEAR=2008
DGENRE=Acid Punk
TTITLE0=Claddagh
TTITLE1=Fide
TTITLE2=Hold
EXTD=
EXTT0=
EXTT1=
EXTT2=
PLAYORDER=
